# xmcd
#
# Track frame offsets:
#	150
#	22675
#	37896
#	56341
#	71161
#	86541
#	103868
#	120405
#	137140
#	152064
#	165270
#	181354
#
# Disc length: 2650 seconds
#
# Revision: 5
# Processed by: cddbd v1.5.2PL0 Copyright (c) Steve Scherf et al.
# Submitted via: audiograbber 1.83.01
#
DISCID=8d0a580c
DTITLE=Dolly Parton - Those Were The Days
DYEAR=2005
DGENRE=Country
TTITLE0=Those Were The Days [with Mary Hopkin and Porter Wagoner and The Opry Gang 
TTITLE0=& The Moscow Circus]
TTITLE1=Blowin' In The Wind [with Nickel Creek]
TTITLE2=Where Have All The Flowers Gone [with Norah Jones and Lee Ann Womack]
TTITLE3=Twelfth Of Never [with Keith Urban]
TTITLE4=Where Do The Children Play [with Yusuf Islam (Cat Stevens)]
TTITLE5=Me And Bobby McGee [with Kris Kristofferson]
TTITLE6=Crimson And Clover [with Tommy James]
TTITLE7=The Cruel War [with Alison Krauss and Mindy Smith and Dan Tyminski]
TTITLE8=Turn, Turn, Turn [with Roger McGuinn]
TTITLE9=If I Were A Carpenter [with Joe Nichols]
TTITLE10=Both Sides Now [with Judy Collins and Rhonda Vincent]
TTITLE11=Imagine [with David Foster]
EXTD=
EXTT0=
EXTT1=
EXTT2=
EXTT3=
EXTT4=
EXTT5=
EXTT6=
EXTT7=
EXTT8=
EXTT9=
EXTT10=
EXTT11=
PLAYORDER=
